<svg version="1" xmlns="http://www.w3.org/2000/svg" width="21.333" height="21.333" viewBox="0 0 16.000000 16.000000"><path d="M7.417.399a7.635 7.635 0 0 0-5.526 3.033 7.612 7.612 0 0 0-.108 8.975 7.6 7.6 0 0 0 6.55 3.184 7.546 7.546 0 0 0 4.953-2.147 7.554 7.554 0 0 0 2.084-3.626 7.646 7.646 0 0 0-.028-3.76A7.618 7.618 0 0 0 9.899.628C9.234.456 8.82.404 8.084.397a21.509 21.509 0 0 0-.667.002zM8.1 1.95c.085.035.139.105.268.348.061.115.62 1.172 1.245 2.348L11.99 9.13l1.243 2.343v.14c0 .121-.008.15-.05.215a.368.368 0 0 1-.13.115c-.08.037-.104.04-.934.04h-.851l-.093-.047a.422.422 0 0 1-.124-.093c-.035-.048-.082-.133-.68-1.25a950.49 950.49 0 0 0-.555-1.037l-.352-.657a421.762 421.762 0 0 0-.698-1.306 208.418 208.418 0 0 0-.725-1.348c-.066-.126-.087-.15-.105-.13-.02.022-.597 1.098-2.482 4.626-.313.586-.59 1.09-.617 1.119a.466.466 0 0 1-.124.087c-.068.031-.137.035-.926.035-.848 0-.853 0-.935-.042a.362.362 0 0 1-.187-.243c-.04-.146-.056-.115.715-1.558C4.978 7.14 7.167 3.032 7.39 2.61c.1-.189.192-.376.205-.417a.332.332 0 0 1 .19-.222.381.381 0 0 1 .314-.02z"/></svg>