<svg xmlns="http://www.w3.org/2000/svg" viewBox="0 0 1158.2 538.6"><title>background</title><path fill="#868686" d="M317 434.5h15.4v15.8H317z"/><path fill="none" stroke="#000" stroke-width="4" stroke-miterlimit="10" d="M440.9 112.3l7.5 11.8h-15z"/><path fill="#8dbddc" d="M898.8 417.8l5.4 9-5.4 9.2h-10.7l-5.4-9.2 5.4-9z"/><path fill="#868686" d="M72.9 188l9.8 15.5H63.1z"/><ellipse cx="933.3" cy="64.2" rx="8.7" ry="8.7" fill="none" stroke="#000" stroke-width="4" stroke-miterlimit="10"/><ellipse cx="122.9" cy="478.4" rx="9.2" ry="9.2" fill="#b7b7b7"/><path fill="none" stroke="#8dbddc" stroke-width="4" stroke-miterlimit="10" d="M211.8 51h13.3v13.2h-13.3z"/><path d="M144.6 351.6l-20.8 7-20.8-7-20.9 7-20.8-7-20.8 7-20.8-7-20.9 7m145.8 8l-20.8 7.1-20.8-7.1-20.9 7.1-20.8-7.1-20.8 7.1-20.8-7.1-20.9 7.1m145.8 8l-20.8 7.2-20.8-7.2-20.9 7.2-20.8-7.2-20.8 7.2-20.8-7.2-20.9 7.2m145.8 7.5l-20.8 7.2-20.8-7.2-20.9 7.2-20.8-7.2-20.8 7.2-20.8-7.2-20.9 7.2M1159.3 140l-26.9-8.2-27 8.2-27-8.2-27 8.2-27-8.2-27 8.2m161.9 15.5l-26.9-8.2-27 8.2-27-8.2-27 8.2-27-8.2-27 8.2m161.9 15.1l-26.9-8.2-27 8.2-27-8.2-27 8.2-27-8.2-27 8.2m161.9 14.8l-26.9-8.2-27 8.2-27-8.2-27 8.2-27-8.2-27 8.2" fill="none" stroke="#211915" stroke-width="4" stroke-miterlimit="10"/><path fill="none" stroke="#8dbddc" stroke-width="4" stroke-miterlimit="10" d="M555.1 371h13.3v13.2h-13.3z"/><ellipse cx="789.9" cy="115.3" rx="9.2" ry="9.2" fill="#b7b7b7"/><ellipse cx="1038.3" cy="285.7" rx="9.2" ry="9.2" fill="#b7b7b7"/><path fill="#868686" d="M1060.7 443h15.4v15.8h-15.4z"/></svg>