<svg xmlns="http://www.w3.org/2000/svg" viewBox="0 0 320 560"><path d="M83.6 390.6L71.5 395l-12-4.4-12.2 4.4-12-4.4-12 4.4-12-4.4L-.8 395m84.4 4.8l-12.1 4.3-12-4.3-12.2 4.3-12-4.3-12 4.3-12-4.3-12.1 4.3m84.4 4.9l-12.1 4.3-12-4.3-12.2 4.3-12-4.3-12 4.3-12-4.3-12.1 4.3m84.4 4.6l-12.1 4.2-12-4.2-12.2 4.2-12-4.2-12 4.2-12-4.2-12.1 4.2m321.7-279.8l-12-4.7-12 4.7-12-4.7-12 4.7-12-4.7-12 4.7m72 8.8l-12-4.7-12 4.7-12-4.7-12 4.7-12-4.7-12 4.7m72 8.6l-12-4.7-12 4.7-12-4.7-12 4.7-12-4.7-12 4.7m72 8.4l-12-4.7-12 4.7-12-4.7-12 4.7-12-4.7-12 4.7" fill="none" stroke="#211915" stroke-width="4" stroke-miterlimit="10"/><path fill="#868686" d="M58.1 334.1l9.9 16.2H48.4z"/><path fill="none" stroke="#8dbddc" stroke-width="4" stroke-miterlimit="10" d="M111 125.6h12v12h-12z"/><path fill="#868686" d="M267.4 442.8h12.7v13h-12.7z"/><path fill="#8dbddc" d="M265.3 327.8l4.4 7.2-4.4 7.2h-8.6l-4.4-7.2 4.4-7.2z"/><ellipse cx="242.7" cy="101.9" rx="5.4" ry="5.3" fill="none" stroke="#000" stroke-width="4" stroke-miterlimit="10"/><path fill="none" stroke="#000" stroke-width="4" stroke-miterlimit="10" d="M77.5 191.7l7.4 12.4H70.1z"/><ellipse cx="280.1" cy="245.6" rx="7" ry="7" fill="#b7b7b7"/></svg>