<svg xmlns="http://www.w3.org/2000/svg" viewBox="0 0 768 560"><path d="M123 376l-17.6 7.6-17.5-7.6-17.7 7.6-17.5-7.6-17.4 7.6-17.5-7.6-17.6 7.6m122.8 8.2l-17.6 7.4-17.5-7.4-17.7 7.4-17.5-7.4-17.4 7.4-17.5-7.4-17.6 7.4m122.8 8.4l-17.6 7.4-17.5-7.4-17.7 7.4-17.5-7.4-17.4 7.4-17.5-7.4L.2 415m122.8 7.9l-17.6 7.2-17.5-7.2-17.7 7.2-17.5-7.2-17.4 7.2-17.5-7.2-17.6 7.2m767.7-327.2l-21-7.9-21 7.9L705 95l-21 7.9-21-7.9-21 7.9m125.9 14.7l-21-7.9-21 7.9-20.9-7.9-21 7.9-21-7.9-21 7.9M767.9 132l-21-7.8-21 7.8-20.9-7.8-21 7.8-21-7.8-21 7.8m125.9 14.1l-21-7.9-21 7.9-20.9-7.9-21 7.9-21-7.9-21 7.9" fill="none" stroke="#211915" stroke-width="4" stroke-miterlimit="10"/><path fill="#868686" d="M210.1 383.8L220 400h-19.6z"/><path fill="none" stroke="#8dbddc" stroke-width="4" stroke-miterlimit="10" d="M266 74h12v12h-12z"/><path fill="#868686" d="M365.4 498.8h12.7v13h-12.7z"/><path fill="#8dbddc" d="M664.3 379.8l4.4 7.2-4.4 7.2h-8.6l-4.4-7.2 4.4-7.2z"/><ellipse cx="550.7" cy="113.9" rx="5.4" ry="5.3" fill="none" stroke="#000" stroke-width="4" stroke-miterlimit="10"/><path fill="none" stroke="#000" stroke-width="4" stroke-miterlimit="10" d="M143.5 230.6l7.4 12.4h-14.8z"/><ellipse cx="600.1" cy="216.6" rx="7" ry="7" fill="#b7b7b7"/></svg>